<?xml version="1.0" encoding="utf-8"?>
<!-- Generator: Adobe Illustrator 26.0.1, SVG Export Plug-In . SVG Version: 6.00 Build 0)  -->
<svg version="1.1" xmlns="http://www.w3.org/2000/svg" xmlns:xlink="http://www.w3.org/1999/xlink" x="0px" y="0px"
	 viewBox="0 0 1133.86 841.89" style="enable-background:new 0 0 1133.86 841.89;" xml:space="preserve">
<style>
.st0{fill:#E573A8;}
</style>
<g id="base">
	<path class="st0" d="M203.98,448.52c-2.24-4.08-5.5-7.24-9.78-9.48c-4.28-2.24-8.86-3.6-13.74-4.08c-3.52-0.4-6.42-0.76-8.7-1.08
		c-2.28-0.32-4.26-0.66-5.94-1.02c-1.68-0.36-3.14-0.78-4.38-1.26c-1.24-0.48-2.54-1.08-3.9-1.8c-0.64-0.24-1.36-0.84-2.16-1.8
		c-0.8-0.96-1.28-1.96-1.44-3c-0.48-3.36-0.42-6.7,0.18-10.02c0.6-3.32,1.7-6.14,3.3-8.46c0.96-1.28,2.36-2.52,4.2-3.72
		c1.84-1.2,3.92-2.28,6.24-3.24c2.32-0.96,4.8-1.8,7.44-2.52c2.64-0.72,5.24-1.24,7.8-1.56c6.88-0.8,12.4-1.16,16.56-1.08
		c4.16,0.08,7.6,0.52,10.32,1.32c3.2,0.8,4.92,2.12,5.16,3.96c0.48,2.64,0.48,4.82,0,6.54c-0.48,1.72-1.28,2.9-2.4,3.54
		c-0.4,0.24-1.02,0.54-1.86,0.9c-0.84,0.36-1.7,0.74-2.58,1.14c-1.2,0.4-2.2,0.76-3,1.08c-0.8,0.32-1.58,0.66-2.34,1.02
		c-0.76,0.36-1.52,0.8-2.28,1.32c-0.76,0.52-1.66,1.18-2.7,1.98c-1.2,0.8-1.96,1.24-2.28,1.32c-0.4,0-0.68-0.16-0.84-0.48
		c-0.16-0.32-0.1-0.78,0.18-1.38c0.28-0.6,0.88-1.34,1.8-2.22c0.92-0.88,2.3-1.84,4.14-2.88c7.28-4.32,10.82-7.62,10.62-9.9
		c-0.2-2.28-4.18-3.34-11.94-3.18c-7.28,0.16-13.86,0.82-19.74,1.98c-5.88,1.16-10.5,2.78-13.86,4.86c-1.6,1.12-2.88,2.26-3.84,3.42
		c-0.96,1.16-1.7,2.38-2.22,3.66c-0.52,1.28-0.88,2.68-1.08,4.2c-0.2,1.52-0.34,3.16-0.42,4.92c-0.08,1.84,0.36,3.38,1.32,4.62
		c0.96,1.24,2.76,2.02,5.4,2.34c6.32,0.72,11.54,1.46,15.66,2.22c4.12,0.76,7.56,1.6,10.32,2.52c2.76,0.92,5.02,1.92,6.78,3
		c1.76,1.08,3.44,2.3,5.04,3.66c2.96,2.4,4.7,4.9,5.22,7.5c0.52,2.6,0.34,5.3-0.54,8.1c-1.36,4.16-4.16,7.4-8.4,9.72
		c-4.24,2.32-10.52,4.12-18.84,5.4c-2.4,0.4-5,0.7-7.8,0.9c-2.8,0.2-5.58,0.28-8.34,0.24c-2.76-0.04-5.42-0.22-7.98-0.54
		c-2.56-0.32-4.8-0.8-6.72-1.44c-4.32-1.28-6.64-3.24-6.96-5.88c-0.16-1.04-0.04-2.24,0.36-3.6c0.4-1.36,1.04-2.64,1.92-3.84
		c0.88-1.2,2-2.2,3.36-3c1.36-0.8,2.92-1.16,4.68-1.08c1.6,0.16,2.44,0.34,2.52,0.54c0.08,0.2-0.16,0.38-0.72,0.54
		c-2.72,0.88-4.74,1.92-6.06,3.12c-1.32,1.2-1.82,3-1.5,5.4c0.16,1.04,0.62,1.92,1.38,2.64c0.76,0.72,2,1.28,3.72,1.68
		c1.72,0.4,4.04,0.66,6.96,0.78c2.92,0.12,6.58,0.1,10.98-0.06c6.24-0.24,11.52-0.88,15.84-1.92c4.32-1.04,7.82-2.4,10.5-4.08
		c2.68-1.68,4.6-3.58,5.76-5.7C203.52,453.18,204.06,450.92,203.98,448.52z M282.46,441.8c-2.88,0.08-5.42,0.14-7.62,0.18
		c-2.2,0.04-4.3,0.06-6.3,0.06c-2,0-4.02-0.02-6.06-0.06c-2.04-0.04-4.3-0.1-6.78-0.18c-3.36,4-6.26,7.48-8.7,10.44
		c-2.44,2.96-4.66,5.62-6.66,7.98c-2,2.36-3.88,4.52-5.64,6.48c-1.76,1.96-3.64,3.94-5.64,5.94c-1.2,1.2-2.26,1.88-3.18,2.04
		c-0.92,0.16-1.46-0.44-1.62-1.8c-0.16-0.96,0.1-2.26,0.78-3.9c0.68-1.64,1.56-3.24,2.64-4.8c1.08-1.56,2.26-2.88,3.54-3.96
		c1.28-1.08,2.48-1.5,3.6-1.26l14.16-17.04c-1.76-0.08-3.22-0.14-4.38-0.18c-1.16-0.04-2.14-0.08-2.94-0.12
		c-0.8-0.04-1.5-0.1-2.1-0.18c-0.6-0.08-1.18-0.2-1.74-0.36c-0.72-0.08-1.2-0.76-1.44-2.04c-0.08-0.64,0.12-1.44,0.6-2.4
		s1.12-1.92,1.92-2.88c0.8-0.96,1.72-1.84,2.76-2.64c1.04-0.8,2.12-1.36,3.24-1.68c0.88-0.24,2.08-0.5,3.6-0.78
		c1.52-0.28,3.56-0.3,6.12-0.06c2.56,0.4,0.44,1-6.36,1.8c-0.4,0-0.86,0.3-1.38,0.9c-0.52,0.6-1.02,1.28-1.5,2.04
		c-0.48,0.76-0.9,1.5-1.26,2.22c-0.36,0.72-0.54,1.2-0.54,1.44c1.6,0,3.24,0.02,4.92,0.06c1.68,0.04,3.16-0.02,4.44-0.18
		c8.4-9.44,16.74-18.08,25.02-25.92c8.28-7.84,17.02-14.4,26.22-19.68c2.96,3.12,3.56,6.64,1.8,10.56
		c-1.36,3.28-2.68,6.34-3.96,9.18c-1.28,2.84-2.56,5.62-3.84,8.34c-1.28,2.72-2.56,5.46-3.84,8.22c-1.28,2.76-2.56,5.7-3.84,8.82
		c2.48,0,4.56-0.04,6.24-0.12c1.68-0.08,2.72-0.08,3.12,0c0.56,0.08,0.84,0.48,0.84,1.2c0,0.16,0,0.28,0,0.36
		c0,0.08-0.06,0.22-0.18,0.42c-0.12,0.2-0.34,0.48-0.66,0.84c-0.32,0.36-0.8,0.9-1.44,1.62l-10.2,0.72
		c-1.76,4.32-3.12,7.94-4.08,10.86c-0.96,2.92-1.76,5.42-2.4,7.5c-0.64,2.08-0.66,3.3-0.06,3.66c0.6,0.36,1.7,0.1,3.3-0.78
		c1.28-0.72,2.32-1.32,3.12-1.8c0.8-0.48,1.56-0.96,2.28-1.44c0.72-0.48,1.52-1,2.4-1.56c0.88-0.56,2-1.28,3.36-2.16l-0.12,3.12
		c-1.44,1.2-2.7,2.28-3.78,3.24s-2.02,1.8-2.82,2.52c-2.8,2.4-4.98,4.02-6.54,4.86s-2.98,1.26-4.26,1.26c-1.36,0-2.32-0.5-2.88-1.5
		c-0.56-1-0.64-2.78-0.24-5.34c0.08-1.12,0.6-3.4,1.56-6.84c0.96-3.44,2.8-8.52,5.52-15.24H282.46z M284.98,436.52
		c3.6-7.28,6.94-14.36,10.02-21.24c3.08-6.88,5.66-12.88,7.74-18c-3.04,1.84-6.5,4.34-10.38,7.5c-3.88,3.16-7.78,6.58-11.7,10.26
		c-3.92,3.68-7.68,7.44-11.28,11.28c-3.6,3.84-6.64,7.36-9.12,10.56L284.98,436.52z M406.78,477.56c-0.72-0.32-1.42-0.68-2.1-1.08
		c-0.68-0.4-1.52-0.88-2.52-1.44c-1-0.56-2.26-1.28-3.78-2.16c-1.52-0.88-3.44-1.96-5.76-3.24l-38.76-21.48l-6,12.24
		c0.4,0.88,0.56,1.64,0.48,2.28c-0.08,0.64-0.4,1.4-0.96,2.28c-1.76,2.72-3.14,4.56-4.14,5.52c-1,0.96-1.98,1.44-2.94,1.44
		c-2.32,0-2.56-1.64-0.72-4.92l10.56-21.12c-2.16-1.6-3.46-3-3.9-4.2c-0.44-1.2-0.22-2.28,0.66-3.24c0.88-0.88,1.92-1.92,3.12-3.12
		c1.2-1.2,2.84-2.48,4.92-3.84c1.12-2.64,2.26-5.48,3.42-8.52c1.16-3.04,2.22-5.88,3.18-8.52s1.74-4.88,2.34-6.72
		c0.6-1.84,0.9-2.92,0.9-3.24c0-0.96-0.54-2-1.62-3.12c-1.08-1.12-2.34-1.68-3.78-1.68c-1.04,0-3.18,0.44-6.42,1.32
		c-3.24,0.88-7.5,2.6-12.78,5.16c-4.32,2.08-7.88,3.94-10.68,5.58c-2.8,1.64-4.96,2.94-6.48,3.9c-0.88,0.64-1.68,0.8-2.4,0.48
		c-0.72-0.32-1.24-1.28-1.56-2.88c-0.24-0.96-0.24-2.04,0-3.24c0.24-1.2,0.74-2.38,1.5-3.54c0.76-1.16,1.76-2.22,3-3.18
		c1.24-0.96,2.78-1.68,4.62-2.16c0.4-0.16,0.68-0.12,0.84,0.12c0.16,0.24,0.16,0.44,0,0.6c-0.88,0.72-1.78,1.64-2.7,2.76
		c-0.92,1.12-1.7,2.36-2.34,3.72c5.12-2.16,9.56-4,13.32-5.52c3.76-1.52,7.04-2.78,9.84-3.78c2.8-1,5.22-1.72,7.26-2.16
		c2.04-0.44,3.9-0.66,5.58-0.66c1.6,0,3.2,0.86,4.8,2.58c1.6,1.72,3.08,3.66,4.44,5.82c0.24,0.4,0.32,0.94,0.24,1.62
		c-0.08,0.68-0.28,1.38-0.6,2.1l-6.12,17.16c3.04-1.76,5.8-3.38,8.28-4.86c2.48-1.48,4.84-2.9,7.08-4.26
		c2.24-1.36,4.36-2.68,6.36-3.96c2-1.28,4.04-2.6,6.12-3.96c3.28-2.24,5.56-3.78,6.84-4.62c1.28-0.84,2.2-1.34,2.76-1.5
		c0.4-0.16,0.72-0.1,0.96,0.18c0.24,0.28,0.32,0.62,0.24,1.02c-0.4,0.96-0.7,1.82-0.9,2.58c-0.2,0.76-0.5,1.54-0.9,2.34
		c-0.64,1.12-1.26,1.84-1.86,2.16c-0.6,0.32-1.58,0.24-2.94-0.24c-2.24,1.36-4.9,2.96-7.98,4.8c-3.08,1.84-6.24,3.72-9.48,5.64
		s-6.34,3.74-9.3,5.46c-2.96,1.72-5.4,3.1-7.32,4.14l-5.28,14.52l36.6,19.92c3.92,2.08,6.9,3.84,8.94,5.28
		c2.04,1.44,3.5,2.56,4.38,3.36c1.84,1.68,2.82,2.92,2.94,3.72C408.4,478,407.9,478.12,406.78,477.56z M495.34,460.64
		c-4.56,6.64-8.8,9.96-12.72,9.96c-4.8,0-8.02-1.88-9.66-5.64c-1.64-3.76-1.86-9.96-0.66-18.6c0.16-1.68,0.6-4.28,1.32-7.8
		c0.72-3.52,1.56-7.42,2.52-11.7c0.96-4.28,1.94-8.62,2.94-13.02c1-4.4,1.9-8.36,2.7-11.88c-2.64,5.76-5.46,11.7-8.46,17.82
		s-5.96,11.98-8.88,17.58c-2.92,5.6-5.7,10.76-8.34,15.48c-2.64,4.72-4.92,8.56-6.84,11.52c-1.04,1.6-1.94,2.64-2.7,3.12
		c-0.76,0.48-1.82,0.72-3.18,0.72c-2.16,0-4.4-0.86-6.72-2.58c-2.32-1.72-4.16-4.26-5.52-7.62c-0.8-1.84-1.16-4.14-1.08-6.9
		c0.08-2.76,0.6-5.66,1.56-8.7c0.32-1.44,0.7-2.84,1.14-4.2c0.44-1.36,1.02-2.9,1.74-4.62c0.72-1.72,1.62-3.76,2.7-6.12
		c1.08-2.36,2.46-5.26,4.14-8.7c1.04-1.92,1.94-3.86,2.7-5.82c0.76-1.96,1.4-3.8,1.92-5.52c0.52-1.72,0.9-3.26,1.14-4.62
		c0.24-1.36,0.36-2.48,0.36-3.36c0.16-1.68-0.24-2.86-1.2-3.54c-0.96-0.68-1.72-1.02-2.28-1.02c-2.08,0.08-4.1,0.24-6.06,0.48
		c-1.96,0.24-3.9,0.64-5.82,1.2c-1.92,0.56-3.88,1.34-5.88,2.34c-2,1-4.12,2.34-6.36,4.02c-2.8,1.92-4.86,4.46-6.18,7.62
		c-1.32,3.16-2.26,7.46-2.82,12.9c0,0.64-0.14,0.98-0.42,1.02c-0.28,0.04-0.58-0.18-0.9-0.66c-0.32-0.48-0.62-1.2-0.9-2.16
		c-0.28-0.96-0.42-2.08-0.42-3.36c-0.16-2.64-0.08-5,0.24-7.08c0.32-2.08,0.96-3.96,1.92-5.64c0.96-1.68,2.32-3.24,4.08-4.68
		c1.76-1.44,4-2.92,6.72-4.44c2.32-1.28,4.8-2.36,7.44-3.24c2.64-0.88,5.18-1.5,7.62-1.86c2.44-0.36,4.68-0.48,6.72-0.36
		c2.04,0.12,3.62,0.54,4.74,1.26c1.68,1.12,2.92,2.48,3.72,4.08c0.8,1.6,1.04,3.8,0.72,6.6c-0.24,1.84-0.6,3.74-1.08,5.7
		c-0.48,1.96-1.16,4.1-2.04,6.42c-0.88,2.32-1.98,4.88-3.3,7.68c-1.32,2.8-2.94,5.92-4.86,9.36c-1.28,2.56-2.32,4.88-3.12,6.96
		c-0.8,2.08-1.42,4.08-1.86,6c-0.44,1.92-0.68,3.86-0.72,5.82c-0.04,1.96,0.06,4.06,0.3,6.3c0.24,1.12,0.66,2.16,1.26,3.12
		c0.6,0.96,1.3,1.68,2.1,2.16c0.8,0.48,1.66,0.62,2.58,0.42c0.92-0.2,1.86-0.9,2.82-2.1c2.48-3.2,4.84-6.54,7.08-10.02
		c2.24-3.48,4.48-7.24,6.72-11.28c2.24-4.04,4.5-8.4,6.78-13.08c2.28-4.68,4.7-9.86,7.26-15.54c1.6-3.2,2.88-5.8,3.84-7.8
		c0.96-2,1.64-3.36,2.04-4.08c0.4-0.8,0.72-1.36,0.96-1.68c0.24-0.32,0.6-0.48,1.08-0.48c0.72,0,1.46,0.38,2.22,1.14
		c0.76,0.76,1.42,1.7,1.98,2.82c0.56,1.12,0.98,2.38,1.26,3.78c0.28,1.4,0.3,2.74,0.06,4.02c-0.32,1.12-0.82,2.68-1.5,4.68
		c-0.68,2-1.42,4.68-2.22,8.04c-1.12,4.32-2.1,8.58-2.94,12.78c-0.84,4.2-1.5,8.1-1.98,11.7c-0.48,3.6-0.8,6.74-0.96,9.42
		c-0.16,2.68-0.12,4.62,0.12,5.82c0.64,2.8,1.46,4.42,2.46,4.86c1,0.44,2.42,0.22,4.26-0.66c0.88-0.4,2.36-1.42,4.44-3.06
		c2.08-1.64,4.48-4.06,7.2-7.26L495.34,460.64z M515.26,451.28c-1.92,3.84-3.4,7.12-4.44,9.84c-1.04,2.72-1.64,4.72-1.8,6
		c-0.08,0.88-0.38,1.76-0.9,2.64c-0.52,0.88-1.1,1.64-1.74,2.28c-0.96,1.12-1.72,1.58-2.28,1.38c-0.56-0.2-0.96-0.66-1.2-1.38
		c-0.32-1.36,0.24-3.98,1.68-7.86c1.44-3.88,3.68-8.58,6.72-14.1c-2.56-0.8-4.24-1.56-5.04-2.28c-0.8-0.72-1.2-1.44-1.2-2.16
		c-0.16-1.2,0.14-2.46,0.9-3.78c0.76-1.32,1.86-2.34,3.3-3.06c0.56-0.32,1.42-0.58,2.58-0.78c1.16-0.2,3.26-0.46,6.3-0.78
		c1.68-2.56,3.24-5.52,4.68-8.88c1.44-3.36,2.72-6.78,3.84-10.26c1.12-3.48,2.08-6.82,2.88-10.02c0.8-3.2,1.4-5.92,1.8-8.16
		c-4.48,0.24-8.24,0.7-11.28,1.38c-3.04,0.68-6.08,1.46-9.12,2.34c-2.32,0.64-4.16,1.28-5.52,1.92c-1.36,0.64-2.44,1.32-3.24,2.04
		c-0.8,0.72-1.34,1.54-1.62,2.46c-0.28,0.92-0.5,1.94-0.66,3.06c-0.16,0.88,0.56,1.62,2.16,2.22c1.6,0.6,4.56,0.98,8.88,1.14
		c1.84,0.08,3.26,0.24,4.26,0.48c1,0.24,1.68,0.48,2.04,0.72c0.36,0.24,0.42,0.46,0.18,0.66c-0.24,0.2-0.72,0.3-1.44,0.3
		c-1.84,0.08-3.52,0.14-5.04,0.18c-1.52,0.04-2.96,0.1-4.32,0.18c-1.36,0.08-2.68,0.14-3.96,0.18c-1.28,0.04-2.64,0.1-4.08,0.18
		c-0.96,0.08-1.8-0.26-2.52-1.02c-0.72-0.76-1.04-1.58-0.96-2.46c0.24-2.64,0.8-5,1.68-7.08c0.88-2.08,2.34-3.9,4.38-5.46
		s4.78-2.92,8.22-4.08c3.44-1.16,7.88-2.14,13.32-2.94c5.44-0.8,10.66-1.18,15.66-1.14c5,0.04,9.58,0.42,13.74,1.14
		c4.16,0.72,7.8,1.72,10.92,3c3.12,1.28,5.56,2.76,7.32,4.44c2.16,2.08,3.66,4.48,4.5,7.2c0.84,2.72,1.1,5.44,0.78,8.16
		c-0.32,2.72-1.22,5.28-2.7,7.68c-1.48,2.4-3.54,4.28-6.18,5.64c-4.8,2.56-11.04,4.46-18.72,5.7c-7.68,1.24-16.76,2.3-27.24,3.18
		c-5.76,0.48-9.22,1.18-10.38,2.1c-1.16,0.92-0.54,1.94,1.86,3.06c6.72,2.4,13.3,4.84,19.74,7.32c6.44,2.48,12.26,4.8,17.46,6.96
		c5.2,2.16,9.6,4.06,13.2,5.7c3.6,1.64,5.96,2.82,7.08,3.54c2.24,1.36,3.28,3,3.12,4.92c-0.08,0.88-0.36,1.34-0.84,1.38
		c-0.48,0.04-1.72-0.5-3.72-1.62c-1.6-0.88-3.12-1.7-4.56-2.46c-1.44-0.76-3.1-1.6-4.98-2.52c-1.88-0.92-4.18-2.02-6.9-3.3
		c-2.72-1.28-6.16-2.84-10.32-4.68L515.26,451.28z M532.42,399.92c0.4,0.88,0.66,2.38,0.78,4.5c0.12,2.12-0.08,4.76-0.6,7.92
		c-0.52,3.16-1.48,6.78-2.88,10.86c-1.4,4.08-3.42,8.48-6.06,13.2c6.08-0.56,11.42-1.06,16.02-1.5c4.6-0.44,8.64-1.06,12.12-1.86
		c3.48-0.8,6.52-1.9,9.12-3.3c2.6-1.4,4.98-3.3,7.14-5.7c1.28-1.44,2.1-3.18,2.46-5.22s0.2-4.1-0.48-6.18
		c-0.68-2.08-1.86-4.02-3.54-5.82c-1.68-1.8-3.92-3.18-6.72-4.14c-4.32-1.44-8.88-2.4-13.68-2.88S536.74,399.37,532.42,399.92z
		 M639.7,441.8c-2.88,0.08-5.42,0.14-7.62,0.18c-2.2,0.04-4.3,0.06-6.3,0.06c-2,0-4.02-0.02-6.06-0.06c-2.04-0.04-4.3-0.1-6.78-0.18
		c-3.36,4-6.26,7.48-8.7,10.44c-2.44,2.96-4.66,5.62-6.66,7.98c-2,2.36-3.88,4.52-5.64,6.48c-1.76,1.96-3.64,3.94-5.64,5.94
		c-1.2,1.2-2.26,1.88-3.18,2.04c-0.92,0.16-1.46-0.44-1.62-1.8c-0.16-0.96,0.1-2.26,0.78-3.9c0.68-1.64,1.56-3.24,2.64-4.8
		s2.26-2.88,3.54-3.96c1.28-1.08,2.48-1.5,3.6-1.26l14.16-17.04c-1.76-0.08-3.22-0.14-4.38-0.18c-1.16-0.04-2.14-0.08-2.94-0.12
		c-0.8-0.04-1.5-0.1-2.1-0.18c-0.6-0.08-1.18-0.2-1.74-0.36c-0.72-0.08-1.2-0.76-1.44-2.04c-0.08-0.64,0.12-1.44,0.6-2.4
		c0.48-0.96,1.12-1.92,1.92-2.88c0.8-0.96,1.72-1.84,2.76-2.64c1.04-0.8,2.12-1.36,3.24-1.68c0.88-0.24,2.08-0.5,3.6-0.78
		c1.52-0.28,3.56-0.3,6.12-0.06c2.56,0.4,0.44,1-6.36,1.8c-0.4,0-0.86,0.3-1.38,0.9c-0.52,0.6-1.02,1.28-1.5,2.04
		c-0.48,0.76-0.9,1.5-1.26,2.22c-0.36,0.72-0.54,1.2-0.54,1.44c1.6,0,3.24,0.02,4.92,0.06c1.68,0.04,3.16-0.02,4.44-0.18
		c8.4-9.44,16.74-18.08,25.02-25.92c8.28-7.84,17.02-14.4,26.22-19.68c2.96,3.12,3.56,6.64,1.8,10.56
		c-1.36,3.28-2.68,6.34-3.96,9.18c-1.28,2.84-2.56,5.62-3.84,8.34c-1.28,2.72-2.56,5.46-3.84,8.22c-1.28,2.76-2.56,5.7-3.84,8.82
		c2.48,0,4.56-0.04,6.24-0.12c1.68-0.08,2.72-0.08,3.12,0c0.56,0.08,0.84,0.48,0.84,1.2c0,0.16,0,0.28,0,0.36
		c0,0.08-0.06,0.22-0.18,0.42c-0.12,0.2-0.34,0.48-0.66,0.84c-0.32,0.36-0.8,0.9-1.44,1.62l-10.2,0.72
		c-1.76,4.32-3.12,7.94-4.08,10.86c-0.96,2.92-1.76,5.42-2.4,7.5c-0.64,2.08-0.66,3.3-0.06,3.66c0.6,0.36,1.7,0.1,3.3-0.78
		c1.28-0.72,2.32-1.32,3.12-1.8c0.8-0.48,1.56-0.96,2.28-1.44c0.72-0.48,1.52-1,2.4-1.56c0.88-0.56,2-1.28,3.36-2.16l-0.12,3.12
		c-1.44,1.2-2.7,2.28-3.78,3.24s-2.02,1.8-2.82,2.52c-2.8,2.4-4.98,4.02-6.54,4.86c-1.56,0.84-2.98,1.26-4.26,1.26
		c-1.36,0-2.32-0.5-2.88-1.5c-0.56-1-0.64-2.78-0.24-5.34c0.08-1.12,0.6-3.4,1.56-6.84c0.96-3.44,2.8-8.52,5.52-15.24H639.7z
		 M642.22,436.52c3.6-7.28,6.94-14.36,10.02-21.24c3.08-6.88,5.66-12.88,7.74-18c-3.04,1.84-6.5,4.34-10.38,7.5
		c-3.88,3.16-7.78,6.58-11.7,10.26c-3.92,3.68-7.68,7.44-11.28,11.28c-3.6,3.84-6.64,7.36-9.12,10.56L642.22,436.52z M686.86,500.12
		c-1.6-1.36-2.42-2.78-2.46-4.26c-0.04-1.48,0.62-3.46,1.98-5.94c1.2-2.08,2.98-4.48,5.34-7.2c2.36-2.72,5.26-5.58,8.7-8.58
		c3.44-3,7.38-6.02,11.82-9.06c4.44-3.04,9.34-5.92,14.7-8.64c-0.48-1.92-1.04-3.5-1.68-4.74c-0.64-1.24-1.4-2.2-2.28-2.88
		c-0.88-0.68-1.88-1.14-3-1.38c-1.12-0.24-2.4-0.36-3.84-0.36c-1.04,0-2.66,0.24-4.86,0.72c-2.2,0.48-4.58,1.2-7.14,2.16
		c-2.56,0.96-5.08,2.16-7.56,3.6c-2.48,1.44-4.48,3.12-6,5.04c-0.64,0.8-1.24,1.34-1.8,1.62c-0.56,0.28-1.04,0.42-1.44,0.42
		c-0.56,0-0.94-0.44-1.14-1.32c-0.2-0.88-0.2-1.98,0-3.3c0.2-1.32,0.64-2.72,1.32-4.2c0.68-1.48,1.62-2.78,2.82-3.9
		c1.12-1.2,2.6-2.38,4.44-3.54c1.84-1.16,3.96-2.3,6.36-3.42c2.72-1.36,5.3-2.76,7.74-4.2c2.44-1.44,4.82-2.96,7.14-4.56
		c3.52-2.48,6.36-4.62,8.52-6.42c2.16-1.8,3.82-3.4,4.98-4.8c1.16-1.4,1.94-2.66,2.34-3.78c0.4-1.12,0.6-2.24,0.6-3.36
		c0.08-3.84-0.7-6.92-2.34-9.24c-1.64-2.32-4.1-3.7-7.38-4.14c-3.28-0.44-7.3,0.12-12.06,1.68c-4.76,1.56-10.22,4.3-16.38,8.22
		c-1.44,0.88-2.88,1.8-4.32,2.76s-2.92,2.1-4.44,3.42c-1.52,1.32-3.04,2.84-4.56,4.56c-1.52,1.72-3.08,3.78-4.68,6.18
		c0-1.68,0.08-3.18,0.24-4.5c0.16-1.32,0.68-3.02,1.56-5.1c0.4-0.96,0.94-1.86,1.62-2.7c0.68-0.84,1.52-1.68,2.52-2.52
		c1-0.84,2.26-1.74,3.78-2.7c1.52-0.96,3.32-2.04,5.4-3.24c8.72-5.28,16.52-8.5,23.4-9.66c6.88-1.16,12.48-0.06,16.8,3.3
		c1.36,0.96,2.48,2.18,3.36,3.66c0.88,1.48,1.54,3.06,1.98,4.74c0.44,1.68,0.62,3.42,0.54,5.22c-0.08,1.8-0.4,3.46-0.96,4.98
		c-0.64,1.84-1.7,3.68-3.18,5.52c-1.48,1.84-3.62,3.84-6.42,6c-2.8,2.16-6.38,4.54-10.74,7.14c-4.36,2.6-9.78,5.54-16.26,8.82
		c4.8-1.68,8.98-2.72,12.54-3.12c3.56-0.4,6.6-0.22,9.12,0.54c2.52,0.76,4.54,2.04,6.06,3.84c1.52,1.8,2.64,4.02,3.36,6.66
		l7.56-3.24l0.48,3.6l-7.68,3.72c-0.32,4.4-1.3,8.56-2.94,12.48c-1.64,3.92-3.64,7.54-6,10.86c-2.36,3.32-4.98,6.3-7.86,8.94
		c-2.88,2.64-5.74,4.9-8.58,6.78c-2.84,1.88-5.48,3.32-7.92,4.32c-2.44,1-4.46,1.5-6.06,1.5c-0.96,0-1.92-0.36-2.88-1.08
		L686.86,500.12z M726.58,460.76c-5.44,2.48-10.4,5.4-14.88,8.76c-4.48,3.36-8.36,6.7-11.64,10.02c-3.28,3.32-5.86,6.36-7.74,9.12
		c-1.88,2.76-2.9,4.74-3.06,5.94c-0.16,1.04,0.12,1.98,0.84,2.82s1.76,1.06,3.12,0.66c4.56-1.2,8.88-3.32,12.96-6.36
		c4.08-3.04,7.64-6.42,10.68-10.14c3.04-3.72,5.44-7.46,7.2-11.22C725.81,466.6,726.65,463.4,726.58,460.76z M799.29,441.8
		c-2.88,0.08-5.42,0.14-7.62,0.18c-2.2,0.04-4.3,0.06-6.3,0.06c-2,0-4.02-0.02-6.06-0.06c-2.04-0.04-4.3-0.1-6.78-0.18
		c-3.36,4-6.26,7.48-8.7,10.44c-2.44,2.96-4.66,5.62-6.66,7.98c-2,2.36-3.88,4.52-5.64,6.48c-1.76,1.96-3.64,3.94-5.64,5.94
		c-1.2,1.2-2.26,1.88-3.18,2.04c-0.92,0.16-1.46-0.44-1.62-1.8c-0.16-0.96,0.1-2.26,0.78-3.9c0.68-1.64,1.56-3.24,2.64-4.8
		s2.26-2.88,3.54-3.96c1.28-1.08,2.48-1.5,3.6-1.26l14.16-17.04c-1.76-0.08-3.22-0.14-4.38-0.18c-1.16-0.04-2.14-0.08-2.94-0.12
		c-0.8-0.04-1.5-0.1-2.1-0.18c-0.6-0.08-1.18-0.2-1.74-0.36c-0.72-0.08-1.2-0.76-1.44-2.04c-0.08-0.64,0.12-1.44,0.6-2.4
		c0.48-0.96,1.12-1.92,1.92-2.88c0.8-0.96,1.72-1.84,2.76-2.64c1.04-0.8,2.12-1.36,3.24-1.68c0.88-0.24,2.08-0.5,3.6-0.78
		c1.52-0.28,3.56-0.3,6.12-0.06c2.56,0.4,0.44,1-6.36,1.8c-0.4,0-0.86,0.3-1.38,0.9c-0.52,0.6-1.02,1.28-1.5,2.04
		c-0.48,0.76-0.9,1.5-1.26,2.22c-0.36,0.72-0.54,1.2-0.54,1.44c1.6,0,3.24,0.02,4.92,0.06c1.68,0.04,3.16-0.02,4.44-0.18
		c8.4-9.44,16.74-18.08,25.02-25.92c8.28-7.84,17.02-14.4,26.22-19.68c2.96,3.12,3.56,6.64,1.8,10.56
		c-1.36,3.28-2.68,6.34-3.96,9.18c-1.28,2.84-2.56,5.62-3.84,8.34c-1.28,2.72-2.56,5.46-3.84,8.22c-1.28,2.76-2.56,5.7-3.84,8.82
		c2.48,0,4.56-0.04,6.24-0.12c1.68-0.08,2.72-0.08,3.12,0c0.56,0.08,0.84,0.48,0.84,1.2c0,0.16,0,0.28,0,0.36
		c0,0.08-0.06,0.22-0.18,0.42c-0.12,0.2-0.34,0.48-0.66,0.84c-0.32,0.36-0.8,0.9-1.44,1.62l-10.2,0.72
		c-1.76,4.32-3.12,7.94-4.08,10.86c-0.96,2.92-1.76,5.42-2.4,7.5c-0.64,2.08-0.66,3.3-0.06,3.66c0.6,0.36,1.7,0.1,3.3-0.78
		c1.28-0.72,2.32-1.32,3.12-1.8c0.8-0.48,1.56-0.96,2.28-1.44c0.72-0.48,1.52-1,2.4-1.56c0.88-0.56,2-1.28,3.36-2.16l-0.12,3.12
		c-1.44,1.2-2.7,2.28-3.78,3.24s-2.02,1.8-2.82,2.52c-2.8,2.4-4.98,4.02-6.54,4.86c-1.56,0.84-2.98,1.26-4.26,1.26
		c-1.36,0-2.32-0.5-2.88-1.5c-0.56-1-0.64-2.78-0.24-5.34c0.08-1.12,0.6-3.4,1.56-6.84c0.96-3.44,2.8-8.52,5.52-15.24H799.29z
		 M801.81,436.52c3.6-7.28,6.94-14.36,10.02-21.24c3.08-6.88,5.66-12.88,7.74-18c-3.04,1.84-6.5,4.34-10.38,7.5
		c-3.88,3.16-7.78,6.58-11.7,10.26c-3.92,3.68-7.68,7.44-11.28,11.28c-3.6,3.84-6.64,7.36-9.12,10.56L801.81,436.52z M923.61,477.56
		c-0.72-0.32-1.42-0.68-2.1-1.08c-0.68-0.4-1.52-0.88-2.52-1.44c-1-0.56-2.26-1.28-3.78-2.16c-1.52-0.88-3.44-1.96-5.76-3.24
		l-38.76-21.48l-6,12.24c0.4,0.88,0.56,1.64,0.48,2.28c-0.08,0.64-0.4,1.4-0.96,2.28c-1.76,2.72-3.14,4.56-4.14,5.52
		c-1,0.96-1.98,1.44-2.94,1.44c-2.32,0-2.56-1.64-0.72-4.92l10.56-21.12c-2.16-1.6-3.46-3-3.9-4.2c-0.44-1.2-0.22-2.28,0.66-3.24
		c0.88-0.88,1.92-1.92,3.12-3.12c1.2-1.2,2.84-2.48,4.92-3.84c1.12-2.64,2.26-5.48,3.42-8.52c1.16-3.04,2.22-5.88,3.18-8.52
		s1.74-4.88,2.34-6.72c0.6-1.84,0.9-2.92,0.9-3.24c0-0.96-0.54-2-1.62-3.12c-1.08-1.12-2.34-1.68-3.78-1.68
		c-1.04,0-3.18,0.44-6.42,1.32c-3.24,0.88-7.5,2.6-12.78,5.16c-4.32,2.08-7.88,3.94-10.68,5.58c-2.8,1.64-4.96,2.94-6.48,3.9
		c-0.88,0.64-1.68,0.8-2.4,0.48c-0.72-0.32-1.24-1.28-1.56-2.88c-0.24-0.96-0.24-2.04,0-3.24c0.24-1.2,0.74-2.38,1.5-3.54
		c0.76-1.16,1.76-2.22,3-3.18c1.24-0.96,2.78-1.68,4.62-2.16c0.4-0.16,0.68-0.12,0.84,0.12c0.16,0.24,0.16,0.44,0,0.6
		c-0.88,0.72-1.78,1.64-2.7,2.76c-0.92,1.12-1.7,2.36-2.34,3.72c5.12-2.16,9.56-4,13.32-5.52c3.76-1.52,7.04-2.78,9.84-3.78
		c2.8-1,5.22-1.72,7.26-2.16c2.04-0.44,3.9-0.66,5.58-0.66c1.6,0,3.2,0.86,4.8,2.58c1.6,1.72,3.08,3.66,4.44,5.82
		c0.24,0.4,0.32,0.94,0.24,1.62c-0.08,0.68-0.28,1.38-0.6,2.1l-6.12,17.16c3.04-1.76,5.8-3.38,8.28-4.86
		c2.48-1.48,4.84-2.9,7.08-4.26c2.24-1.36,4.36-2.68,6.36-3.96c2-1.28,4.04-2.6,6.12-3.96c3.28-2.24,5.56-3.78,6.84-4.62
		c1.28-0.84,2.2-1.34,2.76-1.5c0.4-0.16,0.72-0.1,0.96,0.18c0.24,0.28,0.32,0.62,0.24,1.02c-0.4,0.96-0.7,1.82-0.9,2.58
		c-0.2,0.76-0.5,1.54-0.9,2.34c-0.64,1.12-1.26,1.84-1.86,2.16c-0.6,0.32-1.58,0.24-2.94-0.24c-2.24,1.36-4.9,2.96-7.98,4.8
		c-3.08,1.84-6.24,3.72-9.48,5.64s-6.34,3.74-9.3,5.46c-2.96,1.72-5.4,3.1-7.32,4.14l-5.28,14.52l36.6,19.92
		c3.92,2.08,6.9,3.84,8.94,5.28c2.04,1.44,3.5,2.56,4.38,3.36c1.84,1.68,2.82,2.92,2.94,3.72
		C925.23,478,924.73,478.12,923.61,477.56z M983.37,441.8c-2.88,0.08-5.42,0.14-7.62,0.18c-2.2,0.04-4.3,0.06-6.3,0.06
		c-2,0-4.02-0.02-6.06-0.06c-2.04-0.04-4.3-0.1-6.78-0.18c-3.36,4-6.26,7.48-8.7,10.44c-2.44,2.96-4.66,5.62-6.66,7.98
		c-2,2.36-3.88,4.52-5.64,6.48c-1.76,1.96-3.64,3.94-5.64,5.94c-1.2,1.2-2.26,1.88-3.18,2.04c-0.92,0.16-1.46-0.44-1.62-1.8
		c-0.16-0.96,0.1-2.26,0.78-3.9c0.68-1.64,1.56-3.24,2.64-4.8s2.26-2.88,3.54-3.96c1.28-1.08,2.48-1.5,3.6-1.26l14.16-17.04
		c-1.76-0.08-3.22-0.14-4.38-0.18c-1.16-0.04-2.14-0.08-2.94-0.12c-0.8-0.04-1.5-0.1-2.1-0.18c-0.6-0.08-1.18-0.2-1.74-0.36
		c-0.72-0.08-1.2-0.76-1.44-2.04c-0.08-0.64,0.12-1.44,0.6-2.4c0.48-0.96,1.12-1.92,1.92-2.88c0.8-0.96,1.72-1.84,2.76-2.64
		c1.04-0.8,2.12-1.36,3.24-1.68c0.88-0.24,2.08-0.5,3.6-0.78c1.52-0.28,3.56-0.3,6.12-0.06c2.56,0.4,0.44,1-6.36,1.8
		c-0.4,0-0.86,0.3-1.38,0.9c-0.52,0.6-1.02,1.28-1.5,2.04c-0.48,0.76-0.9,1.5-1.26,2.22c-0.36,0.72-0.54,1.2-0.54,1.44
		c1.6,0,3.24,0.02,4.92,0.06c1.68,0.04,3.16-0.02,4.44-0.18c8.4-9.44,16.74-18.08,25.02-25.92c8.28-7.84,17.02-14.4,26.22-19.68
		c2.96,3.12,3.56,6.64,1.8,10.56c-1.36,3.28-2.68,6.34-3.96,9.18c-1.28,2.84-2.56,5.62-3.84,8.34c-1.28,2.72-2.56,5.46-3.84,8.22
		c-1.28,2.76-2.56,5.7-3.84,8.82c2.48,0,4.56-0.04,6.24-0.12c1.68-0.08,2.72-0.08,3.12,0c0.56,0.08,0.84,0.48,0.84,1.2
		c0,0.16,0,0.28,0,0.36c0,0.08-0.06,0.22-0.18,0.42c-0.12,0.2-0.34,0.48-0.66,0.84c-0.32,0.36-0.8,0.9-1.44,1.62l-10.2,0.72
		c-1.76,4.32-3.12,7.94-4.08,10.86c-0.96,2.92-1.76,5.42-2.4,7.5c-0.64,2.08-0.66,3.3-0.06,3.66c0.6,0.36,1.7,0.1,3.3-0.78
		c1.28-0.72,2.32-1.32,3.12-1.8c0.8-0.48,1.56-0.96,2.28-1.44c0.72-0.48,1.52-1,2.4-1.56c0.88-0.56,2-1.28,3.36-2.16l-0.12,3.12
		c-1.44,1.2-2.7,2.28-3.78,3.24s-2.02,1.8-2.82,2.52c-2.8,2.4-4.98,4.02-6.54,4.86c-1.56,0.84-2.98,1.26-4.26,1.26
		c-1.36,0-2.32-0.5-2.88-1.5c-0.56-1-0.64-2.78-0.24-5.34c0.08-1.12,0.6-3.4,1.56-6.84c0.96-3.44,2.8-8.52,5.52-15.24H983.37z
		 M985.89,436.52c3.6-7.28,6.94-14.36,10.02-21.24c3.08-6.88,5.66-12.88,7.74-18c-3.04,1.84-6.5,4.34-10.38,7.5
		c-3.88,3.16-7.78,6.58-11.7,10.26c-3.92,3.68-7.68,7.44-11.28,11.28c-3.6,3.84-6.64,7.36-9.12,10.56L985.89,436.52z"/>
</g>
</svg>
